<svg xmlns="http://www.w3.org/2000/svg" width="47.999" height="47.999" version="1.0" viewBox="0 0 499.99 499.99" shape-rendering="geometricPrecision" text-rendering="geometricPrecision" image-rendering="optimizeQuality" fill-rule="evenodd" clip-rule="evenodd"><rect y="-.01" width="500" height="500" rx="45.18" ry="48.7" fill="#878f9c"/><path d="M275.17 295.01h-59.94v-5.97c0-10.19 1.13-18.47 3.45-24.83 2.31-6.41 5.76-12.17 10.34-17.44 4.57-5.28 14.85-14.55 30.86-27.8 8.52-6.95 12.77-13.3 12.77-19.07 0-5.82-1.72-10.28-5.11-13.52-3.44-3.18-8.61-4.78-15.56-4.78-7.48 0-13.63 2.47-18.53 7.43-4.9 4.9-8.02 13.57-9.38 25.85l-61.22-7.6c2.11-22.51 10.28-40.6 24.5-54.35 14.26-13.72 36.14-20.56 65.58-20.56 22.94 0 41.41 4.79 55.52 14.32 19.13 12.98 28.72 30.21 28.72 51.76 0 8.94-2.47 17.61-7.43 25.9-4.9 8.29-15.03 18.47-30.26 30.42-10.61 8.46-17.34 15.18-20.14 20.31-2.74 5.06-4.15 11.74-4.15 19.93zm-62.03 15.94h64.25v56.67h-64.25v-56.67z" fill="#fff" fill-rule="nonzero"/></svg>