<svg xmlns="http://www.w3.org/2000/svg" viewBox="0 0 91.06 122.88"><path d="M58.68 84.96H27.37v-3.12c0-5.32.59-9.65 1.8-12.97 1.21-3.35 3.01-6.36 5.4-9.11 2.39-2.76 7.76-7.6 16.12-14.52 4.45-3.63 6.67-6.95 6.67-9.96 0-3.04-.9-5.37-2.67-7.06-1.8-1.66-4.5-2.5-8.13-2.5-3.91 0-7.12 1.29-9.68 3.88-2.56 2.56-4.19 7.09-4.9 13.5L0 39.13c1.1-11.76 5.37-21.21 12.8-28.39C20.25 3.57 31.68 0 47.06 0c11.98 0 21.63 2.5 29 7.48 9.99 6.78 15 15.78 15 27.04 0 4.67-1.29 9.2-3.88 13.53-2.56 4.33-7.85 9.65-15.81 15.89-5.54 4.42-9.06 7.93-10.52 10.61-1.43 2.64-2.17 6.13-2.17 10.41zm-32.4 8.33h33.56v29.6H26.28v-29.6z " fill="#CCC"/></svg>